# xmcd
# 
# Track frame offsets:
#     150
#     18996
#     31556
#     45658
#     57811
#     77893
#     91902
#     102783
#     118575
#     134402
#     149246
#     163241
#     177936
#     190568
#     208474
#     227523
# 
# Disc length: 3263
# 
# Revision: 4
# Processed by: cddbd v1.5.2PL0 Copyright (c) Steve Scherf et al.
# Submitted via: fre:ac v1.0.17
# 
DISCID=d70cbd10
DTITLE=Various Artist - I Love Kölle
DYEAR=0
DGENRE=karneval
TTITLE0=Bläck Fööss - Dat Wasser vun Kölle
TTITLE1=Marie-Luise Nikuta - Uns Stadt heiss Colonia
TTITLE2=Die 3 Colonias - Hallo Kölle
TTITLE3=De Räuber - Hee am Rhing
TTITLE4=3 Söck - Köln, ming Stadt am Rhing
TTITLE5=De Paraplüs - Do höös doch, ich ben hee us Kölle
TTITLE6=Wicky Junggeburth - Kölle, ming Stadt am Rhing
TTITLE7=Paveier - Jo, die Mädcher hee us Kölle
TTITLE8=Renate Fuchs - Mutter Colonia
TTITLE9=Eilemann Trio - Camelle us Kölle
TTITLE10=King Size Dick - Kölle am Rhing (New York, New York)
TTITLE11=Et Fussich Julche - Denn mir sin kölsche Mädcher
TTITLE12=Kölner Dreigestirn - Denn mer dun et jo nur für Kölle
TTITLE13=Blom un Blömcher - Ich ben vun Kölle (My Way)
TTITLE14=Höhner - Hey Kölle! Du bes e Geföhl
TTITLE15=Willy Millowitsch - Kölsche Jung
EXTD=
EXTT0=
EXTT1=
EXTT2=
EXTT3=
EXTT4=
EXTT5=
EXTT6=
EXTT7=
EXTT8=
EXTT9=
EXTT10=
EXTT11=
EXTT12=
EXTT13=
EXTT14=
EXTT15=
PLAYORDER=
